<svg width="899" height="285" viewBox="0 0 899 285" fill="none" xmlns="http://www.w3.org/2000/svg">
<path d="M93.5725 30.8687H52.6016V218.661H78.3088V85.8651L100.267 218.661H128.117L148.468 83.9872V218.661H176.318V30.8687H135.347L115.263 164.201L93.5725 30.8687Z" fill="#FFCB24"/>
<path d="M196.406 30.8687V173.859C196.406 203.906 211.402 221.076 240.322 221.076C269.243 221.076 284.239 203.906 284.239 173.859V30.8687H256.389V175.737C256.389 189.151 250.498 193.98 241.126 193.98C231.753 193.98 225.862 189.151 225.862 175.737V30.8687H196.406Z" fill="#FFCB24"/>
<path d="M300.691 75.9389C300.691 129.594 358.264 136.837 358.264 175.469C358.264 188.883 352.373 193.712 343.001 193.712C333.628 193.712 327.737 188.883 327.737 175.469V162.055H299.888V173.591C299.888 203.638 314.883 220.808 343.804 220.808C372.725 220.808 387.721 203.638 387.721 173.591C387.721 119.936 330.147 112.693 330.147 74.061C330.147 60.6473 335.503 55.55 344.875 55.55C354.248 55.55 359.603 60.6473 359.603 74.061V81.841H387.453V75.9389C387.453 45.8921 372.725 28.7225 344.072 28.7225C315.419 28.7225 300.691 45.8921 300.691 75.9389Z" fill="#FFCB24"/>
<path d="M404.597 218.661H434.054V30.8687H404.597V218.661Z" fill="#FFCB24"/>
<path d="M454.253 138.179H507.809V111.351H454.253V138.179Z" fill="#FFCB24"/>
<path d="M585.341 148.642V175.469C585.341 188.883 579.45 193.712 570.077 193.712C560.705 193.712 554.814 188.883 554.814 175.469V74.061C554.814 60.6473 560.705 55.55 570.077 55.55C579.45 55.55 585.341 60.6473 585.341 74.061V94.1817H613.191V75.9389C613.191 45.8921 598.195 28.7225 569.274 28.7225C540.353 28.7225 525.358 45.8921 525.358 75.9389V173.591C525.358 203.638 540.353 220.808 569.274 220.808C598.195 220.808 613.191 203.638 613.191 173.591V148.642H585.341Z" fill="#FFCB24"/>
<path d="M696.402 30.8687H653.289L623.297 218.661H650.344L655.432 184.59H691.582L696.67 218.661H726.394L696.402 30.8687ZM673.373 64.1348L687.566 159.104H659.181L673.373 64.1348Z" fill="#FFCB24"/>
<path d="M740.112 218.661H818.037V191.834H769.568V30.8687H740.112V218.661Z" fill="#FFCB24"/>
<path d="M830.855 218.661H860.311V30.8687H830.855V218.661Z" fill="#FFCB24"/>
<path d="M643.312 44.2217C643.665 47.8528 644.28 51.333 643.808 54.7431C643.226 58.5656 636.899 59.0807 635.982 55.0775C635.106 51.7484 635.427 48.0768 635.335 44.2947C635.313 39.4262 642.988 38.8303 643.312 44.2217Z" fill="white"/>
<path d="M671.946 99.8574C673.194 102.623 674.442 105.389 674.755 108.346C675.178 110.891 675.009 114.824 672.092 115.811C669.698 116.495 668.45 113.73 668.067 111.859C667.603 108.64 668.075 105.23 667.199 101.901C667.188 99.4666 670.436 97.2426 671.946 99.8574Z" fill="white"/>
<path d="M703.277 121.513C704.967 122.629 705.763 124.611 705.733 126.371C705.814 127.719 705.332 128.695 704.588 129.822C703.844 130.948 702.908 131.14 701.973 131.331C701.037 131.523 699.539 131.342 699.196 130.145C699.005 129.21 699.487 128.234 699.708 127.409C700.08 126.846 700.191 126.433 700.412 125.608C700.261 125.347 700.371 124.934 700.22 124.673C698.339 122.622 701.024 120.026 703.277 121.513Z" fill="white"/>
<path d="M667.714 40.5912C670.914 44.3219 674.044 49.1392 673.281 54.4605C672.769 57.1967 668.766 58.1133 667.256 55.4985C665.294 52.0992 664.79 48.2067 662.827 44.8074C660.754 41.8206 664.967 37.6448 667.714 40.5912Z" fill="white"/>
<path d="M616.35 61.5305C616.35 61.5305 616.089 61.6814 616.35 61.5305C614.259 62.7382 612.156 61.5117 611.773 59.6409C610.978 57.6596 611.681 55.8588 612.646 53.9071C613.611 51.9554 614.466 50.4161 615.431 48.4644C617.733 43.9975 624.976 47.4856 622.413 52.1035C621.709 53.9042 620.593 55.5945 619.89 57.3952C618.925 59.3469 618.07 60.8861 616.35 61.5305Z" fill="white"/>
<path d="M710.887 140.131C712.979 138.923 715.303 139.325 717.627 139.726C720.212 139.977 722.948 140.489 725.312 141.565C727.525 142.379 727.617 146.161 725.787 147.218C723.695 148.425 720.476 148.889 717.589 148.116L710.979 143.913C710.677 143.39 710.486 142.455 710.445 141.781C710.143 141.258 710.364 140.433 710.887 140.131Z" fill="white"/>
<path d="M628.788 79.4516C629.432 81.1714 629.815 83.0422 629.373 84.692C628.931 86.3418 627.966 88.2935 625.944 88.4149C625.27 88.4553 624.556 87.8218 624.254 87.2989C623.911 86.102 624.243 84.8647 624.725 83.8888C624.795 82.8024 625.016 81.9776 624.674 80.7807C624.1 77.9745 627.69 76.9473 628.788 79.4516Z" fill="white"/>
<path d="M688.408 112.667C686.496 112.376 685.027 110.435 684.906 108.413C684.784 106.392 686.313 104.812 687.882 103.906C692.367 102.014 697.387 102.253 702.104 101.97C706.409 101.577 707.9 108.386 703.374 109.604C698.325 111.125 693.84 113.017 688.408 112.667Z" fill="white"/>
<path d="M659.626 74.8941C658.178 77.8216 656.731 80.7493 655.283 83.6768C654.057 85.7795 651.261 88.788 648.485 87.602C645.969 86.2649 646.964 82.5529 647.929 80.6012C649.377 77.6736 651.76 74.5546 653.77 71.999C655.7 68.0956 661.405 70.7291 659.626 74.8941Z" fill="white"/>
<path d="M740.273 120.374C737.065 123.272 732.388 124.229 728.234 124.884C725.015 125.348 718.688 125.863 717.882 121.447C716.965 117.444 722.316 116.447 725.012 116.285C729.317 115.891 734.407 115.045 738.642 115.737C740.704 116.29 741.54 118.945 740.273 120.374Z" fill="white"/>
<path d="M697.703 80.455C695.339 79.3795 695.7 76.3818 697.379 75.0636C700.889 72.6886 704.782 72.1844 707.687 68.7634C711.227 64.6281 717.656 70.3294 714.117 74.4647C710.205 79.1635 703.819 83.1991 697.703 80.455Z" fill="white"/>
<path d="M679.133 82.1095C677.071 81.5569 676.165 79.988 675.782 78.1172C675.168 74.637 676.685 70.6231 677.569 67.3235C678.674 63.1991 684.519 63.6599 684.912 67.9649C685.155 72.0085 685.398 76.0521 683.991 79.6536C683.287 81.4544 681.044 82.4006 679.133 82.1095Z" fill="white"/>
<path d="M691.848 52.805C691.366 53.7808 690.622 54.9077 689.274 54.9886C681.257 54.3876 680.982 43.0414 682.529 37.2671C683.855 32.3178 690.716 33.9351 690.063 38.844C689.813 41.4292 689.934 43.451 690.88 45.6938C691.565 48.0875 692.401 50.7428 691.848 52.805Z" fill="white"/>
<path d="M728.967 87.5063C729.148 86.0074 730.002 84.4682 730.595 83.0799C731.188 81.6916 731.369 80.1927 731.288 78.8449C731.528 73.8254 738.006 73.5719 739.114 78.5105C739.769 82.6645 739.68 87.9454 736.774 91.3663C733.305 94.4153 728.536 91.5903 728.967 87.5063Z" fill="white"/>
<path d="M94.9748 44.2217C95.3281 47.8528 95.9428 51.333 95.4711 54.7431C94.8889 58.5656 88.5621 59.0807 87.6455 55.0775C86.7693 51.7484 87.09 48.0768 86.9982 44.2947C86.9766 39.4262 94.6512 38.8303 94.9748 44.2217Z" fill="white"/>
<path d="M123.61 99.8574C124.858 102.623 126.106 105.389 126.419 108.346C126.842 110.891 126.673 114.824 123.756 115.811C121.362 116.495 120.114 113.73 119.731 111.859C119.267 108.64 119.739 105.23 118.863 101.901C118.852 99.4666 122.1 97.2426 123.61 99.8574Z" fill="white"/>
<path d="M154.94 121.513C156.631 122.629 157.426 124.611 157.396 126.371C157.477 127.719 156.995 128.695 156.251 129.822C155.507 130.948 154.571 131.14 153.636 131.331C152.7 131.523 151.202 131.342 150.859 130.145C150.668 129.21 151.15 128.234 151.371 127.409C151.743 126.846 151.854 126.433 152.075 125.608C151.924 125.347 152.034 124.934 151.883 124.673C150.002 122.622 152.687 120.025 154.94 121.513Z" fill="white"/>
<path d="M119.377 40.5912C122.577 44.322 125.707 49.1392 124.944 54.4605C124.432 57.1967 120.429 58.1133 118.92 55.4985C116.957 52.0992 116.453 48.2067 114.49 44.8074C112.417 41.8206 116.63 37.6448 119.377 40.5912Z" fill="white"/>
<path d="M68.0145 61.5305C68.0145 61.5305 67.753 61.6814 68.0145 61.5305C65.9226 62.7382 63.82 61.5117 63.4371 59.6409C62.6419 57.6596 63.3454 55.8588 64.3104 53.9071C65.2754 51.9554 66.1299 50.4161 67.095 48.4644C69.397 43.9975 76.6405 47.4856 74.077 52.1035C73.3734 53.9042 72.2574 55.5945 71.5539 57.3952C70.5889 59.3469 69.7343 60.8861 68.0145 61.5305Z" fill="white"/>
<path d="M162.55 140.131C164.642 138.923 166.966 139.325 169.29 139.726C171.875 139.977 174.611 140.489 176.975 141.565C179.188 142.379 179.28 146.161 177.45 147.218C175.358 148.425 172.139 148.889 169.252 148.116L162.642 143.913C162.34 143.39 162.149 142.455 162.108 141.781C161.806 141.258 162.027 140.433 162.55 140.131Z" fill="white"/>
<path d="M80.4507 79.4516C81.095 81.1714 81.4778 83.0423 81.0358 84.692C80.5937 86.3418 79.6287 88.2935 77.6069 88.4149C76.933 88.4553 76.2186 87.8219 75.9167 87.2989C75.5743 86.102 75.9058 84.8647 76.3883 83.8888C76.4584 82.8025 76.6794 81.9776 76.3371 80.7807C75.7628 77.9745 79.3534 76.9473 80.4507 79.4516Z" fill="white"/>
<path d="M140.072 112.667C138.16 112.376 136.691 110.435 136.57 108.413C136.449 106.392 137.977 104.812 139.546 103.906C144.031 102.014 149.051 102.253 153.768 101.97C158.073 101.577 159.564 108.386 155.038 109.604C149.989 111.125 145.504 113.017 140.072 112.667Z" fill="white"/>
<path d="M111.289 74.8941C109.841 77.8216 108.394 80.7493 106.946 83.6768C105.72 85.7795 102.924 88.788 100.148 87.602C97.6325 86.2649 98.6271 82.5529 99.5921 80.6012C101.04 77.6736 103.423 74.5546 105.434 71.999C107.364 68.0956 113.068 70.7291 111.289 74.8941Z" fill="white"/>
<path d="M191.937 120.374C188.729 123.272 184.052 124.229 179.898 124.884C176.679 125.348 170.352 125.863 169.546 121.447C168.629 117.444 173.98 116.447 176.676 116.285C180.981 115.891 186.071 115.045 190.306 115.737C192.368 116.29 193.204 118.945 191.937 120.374Z" fill="white"/>
<path d="M149.366 80.455C147.002 79.3795 147.363 76.3818 149.042 75.0636C152.552 72.6886 156.445 72.1843 159.351 68.7634C162.89 64.6281 169.319 70.3294 165.78 74.4647C161.869 79.1635 155.483 83.1991 149.366 80.455Z" fill="white"/>
<path d="M130.796 82.1095C128.734 81.5569 127.828 79.988 127.445 78.1172C126.831 74.637 128.348 70.6231 129.232 67.3235C130.338 63.1991 136.182 63.6599 136.576 67.9649C136.818 72.0085 137.061 76.0521 135.654 79.6536C134.95 81.4544 132.708 82.4006 130.796 82.1095Z" fill="white"/>
<path d="M143.512 52.805C143.03 53.7808 142.286 54.9077 140.938 54.9886C132.921 54.3876 132.646 43.0414 134.193 37.2671C135.519 32.3178 142.38 33.9351 141.727 38.844C141.477 41.4292 141.598 43.451 142.544 45.6938C143.229 48.0875 144.065 50.7428 143.512 52.805Z" fill="white"/>
<path d="M180.63 87.5063C180.811 86.0075 181.666 84.4682 182.259 83.0799C182.852 81.6916 183.032 80.1927 182.951 78.8449C183.191 73.8255 189.669 73.5719 190.777 78.5105C191.432 82.6645 191.343 87.9454 188.437 91.3663C184.968 94.4153 180.199 91.5903 180.63 87.5063Z" fill="white"/>
<path d="M38.3996 125.167C38.7529 128.798 39.3676 132.278 38.8959 135.688C38.3137 139.511 31.9869 140.026 31.0703 136.023C30.1941 132.693 30.5148 129.022 30.4231 125.24C30.4014 120.371 38.076 119.775 38.3996 125.167Z" fill="white"/>
<path d="M67.0349 180.803C68.283 183.568 69.5312 186.334 69.844 189.291C70.2673 191.836 70.0976 195.769 67.1808 196.756C64.787 197.441 63.5388 194.675 63.156 192.804C62.6923 189.585 63.1639 186.175 62.2877 182.846C62.2769 180.412 65.5252 178.188 67.0349 180.803Z" fill="white"/>
<path d="M98.3651 202.459C100.055 203.575 100.851 205.556 100.821 207.316C100.902 208.664 100.419 209.64 99.6755 210.767C98.9315 211.894 97.9961 212.085 97.0606 212.276C96.1252 212.468 94.6264 212.287 94.284 211.09C94.0926 210.155 94.5751 209.179 94.7962 208.354C95.1682 207.791 95.2787 207.378 95.4997 206.553C95.3487 206.292 95.4592 205.879 95.3083 205.618C93.4266 203.567 96.1115 200.971 98.3651 202.459Z" fill="white"/>
<path d="M62.8023 121.536C66.0022 125.267 69.132 130.084 68.3693 135.406C67.8572 138.142 63.854 139.058 62.3444 136.444C60.3818 133.044 59.8776 129.152 57.9151 125.752C55.842 122.766 60.0553 118.59 62.8023 121.536Z" fill="white"/>
<path d="M11.4393 142.476C11.4393 142.476 11.1778 142.626 11.4393 142.476C9.34745 143.683 7.24479 142.457 6.86195 140.586C6.06667 138.605 6.77021 136.804 7.73523 134.852C8.70025 132.9 9.55474 131.361 10.5198 129.409C12.8218 124.943 20.0653 128.431 17.5018 133.049C16.7982 134.849 15.6823 136.54 14.9787 138.34C14.0137 140.292 13.1591 141.831 11.4393 142.476Z" fill="white"/>
<path d="M105.975 221.076C108.067 219.868 110.391 220.27 112.714 220.672C115.3 220.922 118.036 221.434 120.4 222.51C122.613 223.324 122.705 227.106 120.875 228.163C118.783 229.37 115.564 229.834 112.677 229.061L106.067 224.858C105.765 224.335 105.574 223.4 105.533 222.726C105.231 222.203 105.452 221.378 105.975 221.076Z" fill="white"/>
<path d="M23.8755 160.397C24.5198 162.116 24.9026 163.987 24.4606 165.637C24.0185 167.287 23.0535 169.239 21.0317 169.36C20.3578 169.4 19.6434 168.767 19.3415 168.244C18.9991 167.047 19.3306 165.81 19.8131 164.834C19.8832 163.748 20.1042 162.923 19.7619 161.726C19.1876 158.92 22.7783 157.892 23.8755 160.397Z" fill="white"/>
<path d="M83.4955 193.612C81.5843 193.321 80.1151 191.38 79.9937 189.358C79.8724 187.337 81.4008 185.757 82.9697 184.851C87.4553 182.959 92.4747 183.198 97.1922 182.915C101.497 182.522 102.988 189.331 98.4621 190.55C93.413 192.07 88.9274 193.963 83.4955 193.612Z" fill="white"/>
<path d="M54.7135 155.839C53.2659 158.767 51.8184 161.694 50.3709 164.622C49.1444 166.725 46.349 169.733 43.5724 168.547C41.0573 167.21 42.0519 163.498 43.0169 161.546C44.4645 158.619 46.8474 155.5 48.8583 152.944C50.7884 149.041 56.4926 151.674 54.7135 155.839Z" fill="white"/>
<path d="M135.361 201.319C132.153 204.217 127.476 205.174 123.322 205.829C120.103 206.293 113.776 206.808 112.97 202.392C112.053 198.389 117.404 197.392 120.1 197.23C124.405 196.836 129.495 195.99 133.73 196.682C135.792 197.235 136.627 199.89 135.361 201.319Z" fill="white"/>
<path d="M92.7897 161.4C90.4255 160.325 90.7867 157.327 92.4661 156.009C95.9758 153.634 99.8684 153.129 102.774 149.708C106.314 145.573 112.743 151.274 109.204 155.41C105.292 160.109 98.9063 164.144 92.7897 161.4Z" fill="white"/>
<path d="M74.2211 163.055C72.1588 162.502 71.253 160.933 70.8702 159.062C70.2555 155.582 71.7731 151.568 72.6572 148.269C73.7623 144.144 79.6067 144.605 80.0003 148.91C80.243 152.954 80.4858 156.997 79.0787 160.599C78.3751 162.399 76.1323 163.346 74.2211 163.055Z" fill="white"/>
<path d="M86.9361 133.75C86.4536 134.726 85.7096 135.853 84.3618 135.934C76.3447 135.333 76.0695 123.986 77.6167 118.212C78.9428 113.263 85.8035 114.88 85.1512 119.789C84.9006 122.374 85.022 124.396 85.9682 126.639C86.653 129.033 87.4887 131.688 86.9361 133.75Z" fill="white"/>
<path d="M124.055 168.451C124.236 166.953 125.09 165.413 125.683 164.025C126.276 162.637 126.457 161.138 126.376 159.79C126.616 154.771 133.094 154.517 134.202 159.456C134.857 163.61 134.768 168.89 131.862 172.311C128.393 175.36 123.624 172.535 124.055 168.451Z" fill="white"/>
<path d="M169.826 144.315C170.18 147.946 170.794 151.426 170.323 154.836C169.74 158.659 163.414 159.174 162.497 155.171C161.621 151.842 161.942 148.17 161.85 144.388C161.828 139.52 169.503 138.924 169.826 144.315Z" fill="white"/>
<path d="M198.462 199.951C199.71 202.717 200.958 205.482 201.271 208.44C201.694 210.984 201.524 214.917 198.608 215.904C196.214 216.589 194.966 213.823 194.583 211.952C194.119 208.734 194.591 205.323 193.715 201.994C193.704 199.56 196.952 197.336 198.462 199.951Z" fill="white"/>
<path d="M229.792 221.607C231.482 222.723 232.277 224.704 232.248 226.465C232.329 227.812 231.846 228.788 231.102 229.915C230.358 231.042 229.423 231.233 228.487 231.425C227.552 231.616 226.053 231.436 225.711 230.239C225.519 229.303 226.002 228.327 226.223 227.502C226.595 226.939 226.705 226.527 226.926 225.702C226.775 225.44 226.886 225.028 226.735 224.766C224.853 222.715 227.538 220.119 229.792 221.607Z" fill="white"/>
<path d="M194.229 140.685C197.429 144.415 200.559 149.233 199.796 154.554C199.284 157.29 195.281 158.207 193.771 155.592C191.809 152.193 191.304 148.3 189.342 144.901C187.269 141.914 191.482 137.738 194.229 140.685Z" fill="white"/>
<path d="M142.866 161.624C142.866 161.624 142.605 161.775 142.866 161.624C140.774 162.832 138.672 161.605 138.289 159.734C137.493 157.753 138.197 155.952 139.162 154C140.127 152.049 140.981 150.509 141.947 148.558C144.249 144.091 151.492 147.579 148.929 152.197C148.225 153.998 147.109 155.688 146.405 157.489C145.44 159.44 144.586 160.98 142.866 161.624Z" fill="white"/>
<path d="M237.402 240.224C239.494 239.017 241.817 239.418 244.141 239.82C246.726 240.07 249.463 240.583 251.827 241.658C254.04 242.472 254.132 246.254 252.301 247.311C250.209 248.519 246.991 248.982 244.104 248.209L237.494 244.006C237.192 243.483 237 242.548 236.96 241.874C236.658 241.351 236.879 240.526 237.402 240.224Z" fill="white"/>
<path d="M155.302 179.545C155.947 181.265 156.329 183.136 155.887 184.785C155.445 186.435 154.48 188.387 152.458 188.508C151.785 188.549 151.07 187.915 150.768 187.392C150.426 186.195 150.757 184.958 151.24 183.982C151.31 182.896 151.531 182.071 151.189 180.874C150.614 178.068 154.205 177.041 155.302 179.545Z" fill="white"/>
<path d="M214.923 212.76C213.012 212.469 211.543 210.529 211.421 208.507C211.3 206.485 212.829 204.905 214.397 203.999C218.883 202.107 223.902 202.347 228.62 202.064C232.925 201.67 234.416 208.479 229.89 209.698C224.841 211.218 220.355 213.111 214.923 212.76Z" fill="white"/>
<path d="M186.14 174.987C184.693 177.915 183.245 180.843 181.798 183.77C180.571 185.873 177.776 188.881 174.999 187.695C172.484 186.358 173.479 182.646 174.444 180.695C175.891 177.767 178.274 174.648 180.285 172.092C182.215 168.189 187.919 170.823 186.14 174.987Z" fill="white"/>
<path d="M266.787 220.467C263.579 223.365 258.902 224.322 254.748 224.977C251.53 225.441 245.203 225.956 244.397 221.541C243.48 217.538 248.831 216.54 251.527 216.378C255.832 215.985 260.921 215.138 265.156 215.831C267.219 216.383 268.054 219.039 266.787 220.467Z" fill="white"/>
<path d="M224.216 180.548C221.852 179.473 222.213 176.475 223.893 175.157C227.403 172.782 231.295 172.278 234.201 168.857C237.74 164.721 244.17 170.423 240.631 174.558C236.719 179.257 230.333 183.292 224.216 180.548Z" fill="white"/>
<path d="M205.648 182.203C203.586 181.65 202.68 180.081 202.297 178.211C201.682 174.73 203.2 170.716 204.084 167.417C205.189 163.292 211.033 163.753 211.427 168.058C211.67 172.102 211.913 176.145 210.505 179.747C209.802 181.548 207.559 182.494 205.648 182.203Z" fill="white"/>
<path d="M218.363 152.898C217.88 153.874 217.136 155.001 215.789 155.082C207.771 154.481 207.496 143.135 209.043 137.36C210.37 132.411 217.23 134.028 216.578 138.937C216.327 141.523 216.449 143.544 217.395 145.787C218.08 148.181 218.915 150.836 218.363 152.898Z" fill="white"/>
<path d="M255.482 187.6C255.663 186.101 256.517 184.562 257.11 183.173C257.703 181.785 257.884 180.286 257.803 178.938C258.043 173.919 264.52 173.665 265.628 178.604C266.284 182.758 266.195 188.039 263.289 191.46C259.82 194.509 255.051 191.684 255.482 187.6Z" fill="white"/>
<path d="M221.179 50.3143C221.532 53.9454 222.147 57.4256 221.675 60.8357C221.093 64.6582 214.766 65.1733 213.85 61.1702C212.973 57.841 213.294 54.1694 213.202 50.3873C213.181 45.5189 220.855 44.9229 221.179 50.3143Z" fill="white"/>
<path d="M249.813 105.95C251.061 108.716 252.31 111.482 252.622 114.439C253.046 116.984 252.876 120.917 249.959 121.903C247.565 122.588 246.317 119.822 245.934 117.951C245.471 114.733 245.942 111.323 245.066 107.994C245.055 105.559 248.304 103.335 249.813 105.95Z" fill="white"/>
<path d="M281.144 127.606C282.835 128.722 283.63 130.703 283.6 132.464C283.681 133.812 283.199 134.787 282.455 135.914C281.711 137.041 280.775 137.233 279.84 137.424C278.905 137.615 277.406 137.435 277.063 136.238C276.872 135.303 277.354 134.327 277.575 133.502C277.947 132.938 278.058 132.526 278.279 131.701C278.128 131.44 278.239 131.027 278.088 130.766C276.206 128.714 278.891 126.118 281.144 127.606Z" fill="white"/>
<path d="M245.582 46.6838C248.781 50.4146 251.911 55.2318 251.149 60.5532C250.636 63.2893 246.633 64.2059 245.124 61.5911C243.161 58.1919 242.657 54.2993 240.694 50.9001C238.621 47.9133 242.835 43.7374 245.582 46.6838Z" fill="white"/>
<path d="M194.218 67.6231C194.218 67.6231 193.956 67.7741 194.218 67.6231C192.126 68.8308 190.023 67.6043 189.64 65.7335C188.845 63.7522 189.549 61.9515 190.514 59.9997C191.479 58.048 192.333 56.5087 193.298 54.557C195.6 50.0902 202.844 53.5783 200.28 58.1961C199.577 59.9968 198.461 61.6871 197.757 63.4878C196.792 65.4396 195.937 66.9788 194.218 67.6231Z" fill="white"/>
<path d="M288.754 146.224C290.846 145.016 293.17 145.418 295.494 145.819C298.079 146.07 300.815 146.582 303.179 147.657C305.392 148.471 305.484 152.254 303.654 153.31C301.562 154.518 298.343 154.982 295.456 154.208L288.846 150.006C288.544 149.483 288.353 148.547 288.312 147.873C288.01 147.35 288.231 146.526 288.754 146.224Z" fill="white"/>
<path d="M206.655 85.5442C207.299 87.264 207.682 89.1349 207.24 90.7847C206.798 92.4344 205.833 94.3862 203.811 94.5075C203.137 94.548 202.423 93.9145 202.121 93.3915C201.778 92.1946 202.11 90.9573 202.592 89.9814C202.662 88.8951 202.884 88.0702 202.541 86.8733C201.967 84.0671 205.558 83.0399 206.655 85.5442Z" fill="white"/>
<path d="M266.275 118.76C264.364 118.469 262.894 116.528 262.773 114.506C262.652 112.484 264.18 110.904 265.749 109.999C270.235 108.106 275.254 108.346 279.972 108.063C284.277 107.669 285.767 114.479 281.241 115.697C276.192 117.218 271.707 119.11 266.275 118.76Z" fill="white"/>
<path d="M237.493 80.9867C236.045 83.9143 234.598 86.8419 233.15 89.7695C231.924 91.8722 229.128 94.8806 226.352 93.6946C223.837 92.3576 224.831 88.6455 225.796 86.6938C227.244 83.7662 229.627 80.6472 231.638 78.0917C233.568 74.1882 239.272 76.8218 237.493 80.9867Z" fill="white"/>
<path d="M318.14 126.467C314.932 129.365 310.255 130.322 306.101 130.977C302.882 131.44 296.555 131.955 295.749 127.54C294.833 123.537 300.184 122.539 302.879 122.377C307.184 121.984 312.274 121.137 316.509 121.83C318.571 122.383 319.407 125.038 318.14 126.467Z" fill="white"/>
<path d="M275.57 86.5476C273.206 85.4721 273.567 82.4744 275.246 81.1562C278.756 78.7812 282.649 78.277 285.555 74.856C289.094 70.7207 295.523 76.4221 291.984 80.5574C288.073 85.2561 281.687 89.2917 275.57 86.5476Z" fill="white"/>
<path d="M257 88.2021C254.938 87.6495 254.032 86.0806 253.649 84.2098C253.035 80.7297 254.552 76.7157 255.436 73.4162C256.542 69.2917 262.386 69.7525 262.78 74.0576C263.022 78.1011 263.265 82.1447 261.858 85.7462C261.154 87.547 258.912 88.4932 257 88.2021Z" fill="white"/>
<path d="M269.715 58.8976C269.233 59.8735 268.489 61.0003 267.141 61.0812C259.124 60.4803 258.849 49.134 260.396 43.3597C261.722 38.4104 268.583 40.0277 267.931 44.9366C267.68 47.5218 267.801 49.5436 268.747 51.7864C269.432 54.1802 270.268 56.8354 269.715 58.8976Z" fill="white"/>
<path d="M306.835 93.5989C307.015 92.1001 307.87 90.5608 308.463 89.1725C309.056 87.7842 309.236 86.2854 309.155 84.9375C309.395 79.9181 315.873 79.6646 316.981 84.6031C317.636 88.7572 317.547 94.038 314.641 97.459C311.172 100.508 306.403 97.6829 306.835 93.5989Z" fill="white"/>
<path d="M329.106 139.093C329.459 142.724 330.074 146.204 329.602 149.614C329.02 153.437 322.693 153.952 321.776 149.949C320.9 146.619 321.221 142.948 321.129 139.166C321.107 134.297 328.782 133.701 329.106 139.093Z" fill="white"/>
<path d="M357.74 194.729C358.988 197.494 360.236 200.26 360.549 203.217C360.972 205.762 360.803 209.695 357.886 210.682C355.492 211.367 354.244 208.601 353.861 206.73C353.397 203.511 353.869 200.101 352.993 196.772C352.982 194.338 356.23 192.114 357.74 194.729Z" fill="white"/>
<path d="M389.071 216.385C390.761 217.501 391.557 219.482 391.527 221.242C391.608 222.59 391.125 223.566 390.382 224.693C389.638 225.82 388.702 226.011 387.767 226.202C386.831 226.394 385.332 226.213 384.99 225.016C384.799 224.081 385.281 223.105 385.502 222.28C385.874 221.717 385.985 221.304 386.206 220.479C386.055 220.218 386.165 219.805 386.014 219.544C384.133 217.493 386.818 214.897 389.071 216.385Z" fill="white"/>
<path d="M353.508 135.462C356.708 139.193 359.838 144.01 359.075 149.332C358.563 152.068 354.56 152.984 353.05 150.37C351.088 146.97 350.584 143.078 348.621 139.679C346.548 136.692 350.761 132.516 353.508 135.462Z" fill="white"/>
<path d="M302.144 156.402C302.144 156.402 301.883 156.553 302.144 156.402C300.053 157.609 297.95 156.383 297.567 154.512C296.772 152.531 297.475 150.73 298.44 148.778C299.405 146.826 300.26 145.287 301.225 143.335C303.527 138.869 310.77 142.357 308.207 146.975C307.503 148.775 306.387 150.466 305.684 152.266C304.719 154.218 303.864 155.757 302.144 156.402Z" fill="white"/>
<path d="M396.681 235.002C398.773 233.794 401.097 234.196 403.42 234.598C406.006 234.848 408.742 235.36 411.106 236.436C413.319 237.25 413.411 241.032 411.581 242.089C409.489 243.297 406.27 243.76 403.383 242.987L396.773 238.784C396.471 238.261 396.28 237.326 396.239 236.652C395.937 236.129 396.158 235.304 396.681 235.002Z" fill="white"/>
<path d="M314.582 174.323C315.226 176.043 315.609 177.913 315.167 179.563C314.725 181.213 313.76 183.165 311.738 183.286C311.064 183.326 310.349 182.693 310.048 182.17C309.705 180.973 310.037 179.736 310.519 178.76C310.589 177.674 310.81 176.849 310.468 175.652C309.894 172.846 313.484 171.818 314.582 174.323Z" fill="white"/>
<path d="M374.202 207.538C372.29 207.247 370.821 205.306 370.7 203.285C370.578 201.263 372.107 199.683 373.676 198.777C378.161 196.885 383.181 197.125 387.898 196.841C392.203 196.448 393.694 203.257 389.168 204.476C384.119 205.996 379.633 207.889 374.202 207.538Z" fill="white"/>
<path d="M345.42 169.765C343.972 172.693 342.524 175.62 341.077 178.548C339.85 180.651 337.055 183.659 334.278 182.473C331.763 181.136 332.758 177.424 333.723 175.472C335.171 172.545 337.553 169.426 339.564 166.87C341.494 162.967 347.199 165.6 345.42 169.765Z" fill="white"/>
<path d="M426.067 215.245C422.859 218.143 418.182 219.1 414.028 219.755C410.809 220.219 404.482 220.734 403.676 216.318C402.759 212.315 408.11 211.318 410.806 211.156C415.111 210.762 420.201 209.916 424.436 210.608C426.498 211.161 427.334 213.816 426.067 215.245Z" fill="white"/>
<path d="M383.497 175.326C381.133 174.251 381.494 171.253 383.173 169.935C386.683 167.56 390.575 167.055 393.481 163.635C397.021 159.499 403.45 165.201 399.911 169.336C395.999 174.035 389.613 178.07 383.497 175.326Z" fill="white"/>
<path d="M364.927 176.981C362.865 176.428 361.959 174.859 361.576 172.988C360.962 169.508 362.479 165.494 363.363 162.195C364.468 158.07 370.313 158.531 370.706 162.836C370.949 166.88 371.192 170.923 369.785 174.525C369.081 176.325 366.838 177.272 364.927 176.981Z" fill="white"/>
<path d="M377.642 147.676C377.16 148.652 376.416 149.779 375.068 149.86C367.051 149.259 366.776 137.912 368.323 132.138C369.649 127.189 376.51 128.806 375.857 133.715C375.607 136.3 375.728 138.322 376.674 140.565C377.359 142.959 378.195 145.614 377.642 147.676Z" fill="white"/>
<path d="M414.761 182.377C414.942 180.879 415.796 179.339 416.389 177.951C416.982 176.563 417.163 175.064 417.082 173.716C417.322 168.697 423.8 168.443 424.908 173.382C425.563 177.536 425.474 182.817 422.568 186.237C419.099 189.286 414.33 186.461 414.761 182.377Z" fill="white"/>
<path d="M350.865 45.0921C351.219 48.7232 351.833 52.2033 351.362 55.6134C350.78 59.436 344.453 59.951 343.536 55.9479C342.66 52.6187 342.981 48.9471 342.889 45.1651C342.867 40.2966 350.542 39.7006 350.865 45.0921Z" fill="white"/>
<path d="M379.5 100.728C380.748 103.494 381.996 106.259 382.309 109.217C382.732 111.761 382.562 115.694 379.646 116.681C377.252 117.366 376.004 114.6 375.621 112.729C375.157 109.511 375.629 106.1 374.753 102.771C374.742 100.337 377.99 98.113 379.5 100.728Z" fill="white"/>
<path d="M410.831 122.384C412.521 123.5 413.316 125.481 413.287 127.242C413.368 128.589 412.885 129.565 412.141 130.692C411.397 131.819 410.462 132.01 409.526 132.202C408.591 132.393 407.092 132.213 406.75 131.016C406.558 130.08 407.041 129.104 407.262 128.279C407.634 127.716 407.744 127.304 407.966 126.479C407.815 126.217 407.925 125.805 407.774 125.543C405.892 123.492 408.577 120.896 410.831 122.384Z" fill="white"/>
<path d="M375.268 41.4615C378.468 45.1923 381.598 50.0096 380.835 55.3309C380.323 58.0671 376.32 58.9837 374.81 56.3689C372.848 52.9696 372.343 49.0771 370.381 45.6778C368.308 42.691 372.521 38.5152 375.268 41.4615Z" fill="white"/>
<path d="M323.904 62.4008C323.904 62.4008 323.643 62.5518 323.904 62.4008C321.812 63.6086 319.71 62.3821 319.327 60.5113C318.532 58.5299 319.235 56.7292 320.2 54.7775C321.165 52.8258 322.02 51.2865 322.985 49.3348C325.287 44.8679 332.53 48.356 329.967 52.9738C329.263 54.7746 328.147 56.4648 327.444 58.2656C326.479 60.2173 325.624 61.7565 323.904 62.4008Z" fill="white"/>
<path d="M418.441 141.001C420.533 139.794 422.857 140.195 425.18 140.597C427.765 140.848 430.502 141.36 432.866 142.435C435.079 143.249 435.171 147.031 433.34 148.088C431.248 149.296 428.03 149.76 425.143 148.986L418.533 144.783C418.231 144.261 418.039 143.325 417.999 142.651C417.697 142.128 417.918 141.303 418.441 141.001Z" fill="white"/>
<path d="M336.341 80.3219C336.986 82.0418 337.368 83.9126 336.926 85.5624C336.484 87.2122 335.519 89.1639 333.498 89.2853C332.824 89.3257 332.109 88.6922 331.807 88.1693C331.465 86.9724 331.796 85.735 332.279 84.7592C332.349 83.6728 332.57 82.8479 332.228 81.651C331.653 78.8448 335.244 77.8176 336.341 80.3219Z" fill="white"/>
<path d="M395.961 113.537C394.05 113.246 392.581 111.306 392.46 109.284C392.338 107.262 393.867 105.682 395.435 104.776C399.921 102.884 404.941 103.124 409.658 102.841C413.963 102.447 415.454 109.256 410.928 110.475C405.879 111.995 401.393 113.888 395.961 113.537Z" fill="white"/>
<path d="M367.179 75.7644C365.732 78.692 364.284 81.6196 362.837 84.5472C361.61 86.6499 358.815 89.6584 356.038 88.4723C353.523 87.1353 354.518 83.4233 355.483 81.4716C356.93 78.544 359.313 75.425 361.324 72.8694C363.254 68.966 368.958 71.5995 367.179 75.7644Z" fill="white"/>
<path d="M447.826 121.244C444.619 124.142 439.941 125.099 435.787 125.754C432.569 126.218 426.242 126.733 425.436 122.318C424.519 118.315 429.87 117.317 432.566 117.155C436.871 116.762 441.96 115.915 446.195 116.608C448.258 117.16 449.093 119.816 447.826 121.244Z" fill="white"/>
<path d="M405.257 81.3254C402.892 80.2498 403.253 77.2522 404.933 75.9339C408.443 73.5589 412.335 73.0547 415.241 69.6338C418.781 65.4985 425.21 71.1998 421.671 75.3351C417.759 80.0338 411.373 84.0695 405.257 81.3254Z" fill="white"/>
<path d="M386.687 82.9799C384.625 82.4273 383.719 80.8584 383.336 78.9876C382.721 75.5074 384.239 71.4935 385.123 68.1939C386.228 64.0694 392.072 64.5303 392.466 68.8353C392.709 72.8789 392.952 76.9225 391.545 80.524C390.841 82.3247 388.598 83.271 386.687 82.9799Z" fill="white"/>
<path d="M399.402 53.6754C398.919 54.6512 398.175 55.7781 396.828 55.859C388.811 55.258 388.535 43.9117 390.082 38.1375C391.409 33.1881 398.269 34.8054 397.617 39.7143C397.366 42.2995 397.488 44.3213 398.434 46.5641C399.119 48.9579 399.954 51.6131 399.402 53.6754Z" fill="white"/>
<path d="M436.521 88.3766C436.702 86.8778 437.556 85.3385 438.149 83.9502C438.742 82.5619 438.923 81.0631 438.842 79.7152C439.082 74.6958 445.559 74.4423 446.668 79.3808C447.323 83.5349 447.234 88.8158 444.328 92.2367C440.859 95.2856 436.09 92.4606 436.521 88.3766Z" fill="white"/>
<path d="M466.626 104.278C466.979 107.909 467.594 111.389 467.122 114.799C466.54 118.622 460.213 119.137 459.297 115.134C458.421 111.804 458.741 108.133 458.65 104.351C458.628 99.4822 466.303 98.8863 466.626 104.278Z" fill="white"/>
<path d="M495.26 159.913C496.509 162.679 497.757 165.445 498.07 168.402C498.493 170.947 498.323 174.88 495.406 175.867C493.013 176.551 491.764 173.786 491.382 171.915C490.918 168.696 491.39 165.286 490.513 161.957C490.502 159.523 493.751 157.299 495.26 159.913Z" fill="white"/>
<path d="M526.592 181.569C528.282 182.685 529.077 184.667 529.048 186.427C529.129 187.775 528.646 188.751 527.902 189.878C527.158 191.004 526.223 191.196 525.287 191.387C524.352 191.579 522.853 191.398 522.511 190.201C522.319 189.266 522.802 188.29 523.023 187.465C523.395 186.902 523.505 186.489 523.726 185.664C523.575 185.403 523.686 184.99 523.535 184.729C521.653 182.678 524.338 180.082 526.592 181.569Z" fill="white"/>
<path d="M491.029 100.647C494.229 104.378 497.359 109.195 496.596 114.517C496.084 117.253 492.081 118.169 490.571 115.555C488.608 112.155 488.104 108.263 486.142 104.863C484.069 101.877 488.282 97.7008 491.029 100.647Z" fill="white"/>
<path d="M439.665 121.586C439.665 121.586 439.403 121.737 439.665 121.586C437.573 122.794 435.47 121.568 435.088 119.697C434.292 117.716 434.996 115.915 435.961 113.963C436.926 112.011 437.78 110.472 438.745 108.52C441.047 104.054 448.291 107.542 445.727 112.159C445.024 113.96 443.908 115.65 443.204 117.451C442.239 119.403 441.385 120.942 439.665 121.586Z" fill="white"/>
<path d="M534.202 200.187C536.294 198.979 538.617 199.381 540.941 199.782C543.526 200.033 546.262 200.545 548.626 201.621C550.84 202.435 550.931 206.217 549.101 207.274C547.009 208.481 543.791 208.945 540.903 208.172L534.293 203.969C533.992 203.446 533.8 202.511 533.76 201.837C533.458 201.314 533.679 200.489 534.202 200.187Z" fill="white"/>
<path d="M452.102 139.508C452.746 141.227 453.129 143.098 452.687 144.748C452.245 146.398 451.28 148.35 449.258 148.471C448.584 148.511 447.87 147.878 447.568 147.355C447.226 146.158 447.557 144.921 448.04 143.945C448.11 142.858 448.331 142.034 447.988 140.837C447.414 138.03 451.005 137.003 452.102 139.508Z" fill="white"/>
<path d="M511.722 172.723C509.811 172.432 508.342 170.491 508.22 168.469C508.099 166.448 509.627 164.868 511.196 163.962C515.682 162.07 520.701 162.309 525.419 162.026C529.724 161.633 531.215 168.442 526.689 169.66C521.64 171.181 517.154 173.073 511.722 172.723Z" fill="white"/>
<path d="M482.94 134.95C481.493 137.878 480.045 140.805 478.597 143.733C477.371 145.836 474.576 148.844 471.799 147.658C469.284 146.321 470.278 142.609 471.243 140.657C472.691 137.73 475.074 134.611 477.085 132.055C479.015 128.152 484.719 130.785 482.94 134.95Z" fill="white"/>
<path d="M563.587 180.43C560.379 183.328 555.702 184.285 551.548 184.94C548.329 185.404 542.003 185.919 541.197 181.503C540.28 177.5 545.631 176.503 548.327 176.341C552.632 175.947 557.721 175.101 561.956 175.793C564.018 176.346 564.854 179.001 563.587 180.43Z" fill="white"/>
<path d="M521.017 140.511C518.653 139.435 519.014 136.438 520.694 135.12C524.203 132.745 528.096 132.24 531.002 128.819C534.541 124.684 540.971 130.385 537.431 134.521C533.52 139.219 527.134 143.255 521.017 140.511Z" fill="white"/>
<path d="M502.448 142.166C500.385 141.613 499.48 140.044 499.097 138.173C498.482 134.693 500 130.679 500.884 127.38C501.989 123.255 507.833 123.716 508.227 128.021C508.47 132.065 508.712 136.108 507.305 139.71C506.602 141.51 504.359 142.457 502.448 142.166Z" fill="white"/>
<path d="M515.163 112.861C514.68 113.837 513.936 114.964 512.588 115.045C504.571 114.444 504.296 103.097 505.843 97.3231C507.169 92.3738 514.03 93.9911 513.378 98.9C513.127 101.485 513.249 103.507 514.195 105.75C514.88 108.144 515.715 110.799 515.163 112.861Z" fill="white"/>
<path d="M552.282 147.562C552.462 146.063 553.317 144.524 553.91 143.136C554.503 141.748 554.683 140.249 554.603 138.901C554.842 133.881 561.32 133.628 562.428 138.566C563.083 142.721 562.995 148.001 560.089 151.422C556.619 154.471 551.851 151.646 552.282 147.562Z" fill="white"/>
<path d="M535.384 45.0921C535.737 48.7232 536.352 52.2033 535.88 55.6134C535.298 59.436 528.971 59.951 528.055 55.9479C527.178 52.6187 527.499 48.9471 527.407 45.1651C527.386 40.2966 535.06 39.7006 535.384 45.0921Z" fill="white"/>
<path d="M564.018 100.728C565.266 103.494 566.515 106.259 566.827 109.217C567.251 111.761 567.081 115.694 564.164 116.681C561.77 117.366 560.522 114.6 560.139 112.729C559.676 109.511 560.147 106.1 559.271 102.771C559.26 100.337 562.509 98.113 564.018 100.728Z" fill="white"/>
<path d="M595.35 122.384C597.04 123.5 597.835 125.481 597.805 127.242C597.886 128.589 597.404 129.565 596.66 130.692C595.916 131.819 594.98 132.01 594.045 132.202C593.11 132.393 591.611 132.213 591.268 131.016C591.077 130.08 591.56 129.104 591.781 128.279C592.153 127.716 592.263 127.304 592.484 126.479C592.333 126.217 592.444 125.805 592.293 125.543C590.411 123.492 593.096 120.896 595.35 122.384Z" fill="white"/>
<path d="M559.787 41.4615C562.987 45.1923 566.116 50.0095 565.354 55.3309C564.842 58.0671 560.838 58.9837 559.329 56.3689C557.366 52.9696 556.862 49.077 554.899 45.6778C552.826 42.691 557.04 38.5152 559.787 41.4615Z" fill="white"/>
<path d="M508.423 62.4008C508.423 62.4008 508.161 62.5518 508.423 62.4008C506.331 63.6086 504.228 62.3821 503.845 60.5113C503.05 58.5299 503.754 56.7292 504.719 54.7775C505.684 52.8258 506.538 51.2865 507.503 49.3348C509.805 44.8679 517.049 48.356 514.485 52.9738C513.782 54.7746 512.666 56.4648 511.962 58.2656C510.997 60.2173 510.143 61.7565 508.423 62.4008Z" fill="white"/>
<path d="M602.96 141.001C605.051 139.794 607.375 140.195 609.699 140.597C612.284 140.848 615.02 141.36 617.384 142.435C619.597 143.249 619.689 147.031 617.859 148.088C615.767 149.296 612.548 149.76 609.661 148.986L603.051 144.783C602.749 144.261 602.558 143.325 602.517 142.651C602.216 142.128 602.437 141.303 602.96 141.001Z" fill="white"/>
<path d="M520.86 80.3219C521.504 82.0418 521.887 83.9126 521.445 85.5624C521.003 87.2122 520.038 89.1639 518.016 89.2853C517.342 89.3257 516.628 88.6922 516.326 88.1693C515.983 86.9724 516.315 85.735 516.798 84.7592C516.868 83.6728 517.089 82.8479 516.746 81.651C516.172 78.8448 519.763 77.8176 520.86 80.3219Z" fill="white"/>
<path d="M580.48 113.537C578.569 113.246 577.099 111.306 576.978 109.284C576.857 107.262 578.385 105.682 579.954 104.776C584.44 102.884 589.459 103.124 594.177 102.841C598.482 102.447 599.973 109.256 595.446 110.475C590.397 111.995 585.912 113.888 580.48 113.537Z" fill="white"/>
<path d="M551.698 75.7644C550.25 78.692 548.803 81.6196 547.355 84.5472C546.129 86.6499 543.333 89.6584 540.557 88.4723C538.042 87.1353 539.036 83.4233 540.001 81.4716C541.449 78.544 543.832 75.425 545.843 72.8694C547.773 68.966 553.477 71.5995 551.698 75.7644Z" fill="white"/>
<path d="M632.345 121.244C629.137 124.142 624.46 125.099 620.306 125.754C617.087 126.218 610.76 126.733 609.954 122.318C609.038 118.315 614.389 117.317 617.084 117.155C621.389 116.762 626.479 115.915 630.714 116.608C632.776 117.16 633.612 119.816 632.345 121.244Z" fill="white"/>
<path d="M589.775 81.3254C587.411 80.2498 587.772 77.2522 589.451 75.9339C592.961 73.5589 596.854 73.0547 599.76 69.6338C603.299 65.4985 609.728 71.1998 606.189 75.3351C602.278 80.0338 595.892 84.0695 589.775 81.3254Z" fill="white"/>
<path d="M571.205 82.9799C569.143 82.4273 568.237 80.8584 567.855 78.9876C567.24 75.5074 568.757 71.4935 569.642 68.1939C570.747 64.0694 576.591 64.5303 576.985 68.8353C577.227 72.8789 577.47 76.9225 576.063 80.524C575.36 82.3247 573.117 83.271 571.205 82.9799Z" fill="white"/>
<path d="M583.92 53.6754C583.438 54.6512 582.694 55.7781 581.346 55.859C573.329 55.258 573.054 43.9117 574.601 38.1375C575.927 33.1881 582.788 34.8054 582.136 39.7143C581.885 42.2995 582.006 44.3213 582.953 46.5641C583.637 48.9579 584.473 51.6131 583.92 53.6754Z" fill="white"/>
<path d="M621.04 88.3766C621.22 86.8778 622.075 85.3386 622.668 83.9502C623.261 82.5619 623.441 81.0631 623.36 79.7153C623.6 74.6958 630.078 74.4423 631.186 79.3808C631.841 83.5349 631.752 88.8158 628.846 92.2367C625.377 95.2856 620.608 92.4607 621.04 88.3766Z" fill="white"/>
<path d="M607.626 153.019C607.979 156.65 608.594 160.13 608.122 163.54C607.54 167.363 601.213 167.878 600.297 163.875C599.421 160.545 599.741 156.874 599.65 153.092C599.628 148.223 607.303 147.627 607.626 153.019Z" fill="white"/>
<path d="M636.26 208.655C637.509 211.42 638.757 214.186 639.07 217.143C639.493 219.688 639.323 223.621 636.406 224.608C634.013 225.293 632.764 222.527 632.382 220.656C631.918 217.437 632.39 214.027 631.513 210.698C631.502 208.264 634.751 206.04 636.26 208.655Z" fill="white"/>
<path d="M667.592 230.311C669.282 231.427 670.077 233.408 670.048 235.168C670.129 236.516 669.646 237.492 668.902 238.619C668.158 239.746 667.223 239.937 666.287 240.128C665.352 240.32 663.853 240.139 663.511 238.942C663.319 238.007 663.802 237.031 664.023 236.206C664.395 235.643 664.505 235.23 664.726 234.405C664.575 234.144 664.686 233.732 664.535 233.47C662.653 231.419 665.338 228.823 667.592 230.311Z" fill="white"/>
<path d="M632.029 149.388C635.229 153.119 638.359 157.936 637.596 163.258C637.084 165.994 633.081 166.91 631.571 164.296C629.608 160.896 629.104 157.004 627.142 153.605C625.069 150.618 629.282 146.442 632.029 149.388Z" fill="white"/>
<path d="M580.665 170.328C580.665 170.328 580.403 170.479 580.665 170.328C578.573 171.535 576.47 170.309 576.088 168.438C575.292 166.457 575.996 164.656 576.961 162.704C577.926 160.753 578.78 159.213 579.745 157.262C582.047 152.795 589.291 156.283 586.727 160.901C586.024 162.701 584.908 164.392 584.204 166.192C583.239 168.144 582.385 169.683 580.665 170.328Z" fill="white"/>
<path d="M675.202 248.928C677.294 247.72 679.617 248.122 681.941 248.524C684.526 248.774 687.262 249.286 689.626 250.362C691.84 251.176 691.931 254.958 690.101 256.015C688.009 257.223 684.791 257.686 681.903 256.913L675.293 252.71C674.992 252.187 674.8 251.252 674.76 250.578C674.458 250.055 674.679 249.23 675.202 248.928Z" fill="white"/>
<path d="M593.102 188.249C593.746 189.969 594.129 191.839 593.687 193.489C593.245 195.139 592.28 197.091 590.258 197.212C589.584 197.252 588.87 196.619 588.568 196.096C588.226 194.899 588.557 193.662 589.04 192.686C589.11 191.6 589.331 190.775 588.988 189.578C588.414 186.772 592.005 185.744 593.102 188.249Z" fill="white"/>
<path d="M652.722 221.464C650.811 221.173 649.342 219.232 649.22 217.211C649.099 215.189 650.627 213.609 652.196 212.703C656.682 210.811 661.701 211.051 666.419 210.767C670.724 210.374 672.215 217.183 667.689 218.402C662.64 219.922 658.154 221.815 652.722 221.464Z" fill="white"/>
<path d="M623.94 183.691C622.493 186.619 621.045 189.546 619.597 192.474C618.371 194.577 615.576 197.585 612.799 196.399C610.284 195.062 611.278 191.35 612.243 189.398C613.691 186.471 616.074 183.352 618.085 180.796C620.015 176.893 625.719 179.526 623.94 183.691Z" fill="white"/>
<path d="M704.587 229.171C701.379 232.069 696.702 233.026 692.548 233.681C689.329 234.145 683.003 234.66 682.197 230.244C681.28 226.241 686.631 225.244 689.327 225.082C693.632 224.688 698.721 223.842 702.956 224.534C705.018 225.087 705.854 227.742 704.587 229.171Z" fill="white"/>
<path d="M662.017 189.252C659.653 188.177 660.014 185.179 661.694 183.861C665.203 181.486 669.096 180.981 672.002 177.561C675.541 173.425 681.971 179.127 678.431 183.262C674.52 187.961 668.134 191.996 662.017 189.252Z" fill="white"/>
<path d="M643.448 190.907C641.385 190.354 640.48 188.785 640.097 186.914C639.482 183.434 641 179.42 641.884 176.121C642.989 171.996 648.833 172.457 649.227 176.762C649.47 180.806 649.712 184.849 648.305 188.451C647.602 190.251 645.359 191.198 643.448 190.907Z" fill="white"/>
<path d="M656.163 161.602C655.68 162.578 654.936 163.705 653.588 163.786C645.571 163.185 645.296 151.838 646.843 146.064C648.169 141.115 655.03 142.732 654.378 147.641C654.127 150.226 654.249 152.248 655.195 154.491C655.88 156.885 656.715 159.54 656.163 161.602Z" fill="white"/>
<path d="M693.282 196.303C693.462 194.805 694.317 193.265 694.91 191.877C695.503 190.489 695.683 188.99 695.603 187.642C695.842 182.623 702.32 182.369 703.428 187.308C704.083 191.462 703.995 196.743 701.089 200.163C697.619 203.212 692.851 200.387 693.282 196.303Z" fill="white"/>
<path d="M757.331 42.4809C757.685 46.112 758.299 49.5922 757.828 53.0023C757.245 56.8248 750.919 57.3399 750.002 53.3368C749.126 50.0076 749.446 46.336 749.355 42.5539C749.333 37.6855 757.008 37.0895 757.331 42.4809Z" fill="white"/>
<path d="M785.966 98.1167C787.214 100.882 788.462 103.648 788.775 106.605C789.198 109.15 789.028 113.083 786.111 114.07C783.718 114.755 782.469 111.989 782.087 110.118C781.623 106.899 782.095 103.489 781.218 100.16C781.208 97.7259 784.456 95.5019 785.966 98.1167Z" fill="white"/>
<path d="M817.297 119.773C818.987 120.889 819.782 122.87 819.753 124.63C819.834 125.978 819.351 126.954 818.607 128.081C817.863 129.208 816.928 129.399 815.992 129.591C815.057 129.782 813.558 129.601 813.216 128.405C813.024 127.469 813.507 126.493 813.728 125.668C814.1 125.105 814.21 124.693 814.431 123.868C814.28 123.606 814.391 123.194 814.24 122.932C812.358 120.881 815.043 118.285 817.297 119.773Z" fill="white"/>
<path d="M781.734 38.8504C784.934 42.5812 788.064 47.3984 787.301 52.7198C786.789 55.4559 782.786 56.3725 781.276 53.7577C779.313 50.3585 778.809 46.4659 776.847 43.0667C774.774 40.0799 778.987 35.904 781.734 38.8504Z" fill="white"/>
<path d="M730.37 59.7897C730.37 59.7897 730.108 59.9407 730.37 59.7897C728.278 60.9974 726.175 59.771 725.793 57.9001C724.997 55.9188 725.701 54.1181 726.666 52.1663C727.631 50.2146 728.485 48.6753 729.45 46.7236C731.752 42.2568 738.996 45.7449 736.432 50.3627C735.729 52.1635 734.613 53.8537 733.909 55.6545C732.944 57.6062 732.09 59.1454 730.37 59.7897Z" fill="white"/>
<path d="M824.907 138.39C826.999 137.183 829.322 137.584 831.646 137.986C834.231 138.236 836.967 138.748 839.332 139.824C841.545 140.638 841.637 144.42 839.806 145.477C837.714 146.685 834.496 147.148 831.608 146.375L824.999 142.172C824.697 141.649 824.505 140.714 824.465 140.04C824.163 139.517 824.384 138.692 824.907 138.39Z" fill="white"/>
<path d="M742.807 77.7108C743.451 79.4307 743.834 81.3015 743.392 82.9513C742.95 84.6011 741.985 86.5528 739.963 86.6741C739.289 86.7146 738.575 86.0811 738.273 85.5581C737.931 84.3612 738.262 83.1239 738.745 82.1481C738.815 81.0617 739.036 80.2368 738.693 79.0399C738.119 76.2337 741.71 75.2065 742.807 77.7108Z" fill="white"/>
<path d="M802.427 110.926C800.516 110.635 799.047 108.694 798.925 106.673C798.804 104.651 800.332 103.071 801.901 102.165C806.387 100.273 811.406 100.513 816.124 100.229C820.429 99.8358 821.92 106.645 817.394 107.864C812.345 109.384 807.859 111.277 802.427 110.926Z" fill="white"/>
<path d="M773.645 73.1533C772.198 76.0809 770.75 79.0085 769.303 81.9361C768.076 84.0388 765.281 87.0472 762.504 85.8612C759.989 84.5242 760.984 80.8121 761.949 78.8604C763.396 75.9328 765.779 72.8139 767.79 70.2583C769.72 66.3548 775.424 68.9884 773.645 73.1533Z" fill="white"/>
<path d="M854.292 118.633C851.084 121.531 846.407 122.488 842.253 123.143C839.035 123.607 832.708 124.122 831.902 119.707C830.985 115.703 836.336 114.706 839.032 114.544C843.337 114.15 848.426 113.304 852.661 113.997C854.723 114.549 855.559 117.204 854.292 118.633Z" fill="white"/>
<path d="M811.722 78.7142C809.358 77.6387 809.719 74.641 811.399 73.3228C814.908 70.9478 818.801 70.4436 821.707 67.0227C825.246 62.8874 831.676 68.5887 828.136 72.724C824.225 77.4227 817.839 81.4583 811.722 78.7142Z" fill="white"/>
<path d="M793.153 80.3687C791.09 79.8162 790.185 78.2472 789.802 76.3764C789.187 72.8963 790.705 68.8824 791.589 65.5828C792.694 61.4583 798.538 61.9191 798.932 66.2242C799.175 70.2677 799.417 74.3113 798.01 77.9128C797.307 79.7136 795.064 80.6598 793.153 80.3687Z" fill="white"/>
<path d="M805.868 51.0642C805.385 52.0401 804.641 53.1669 803.293 53.2478C795.276 52.6469 795.001 41.3006 796.548 35.5264C797.874 30.577 804.735 32.1943 804.083 37.1032C803.832 39.6884 803.954 41.7102 804.9 43.953C805.585 46.3468 806.42 49.002 805.868 51.0642Z" fill="white"/>
<path d="M842.987 85.7655C843.167 84.2667 844.022 82.7274 844.615 81.3391C845.208 79.9508 845.389 78.452 845.308 77.1041C845.547 72.0847 852.025 71.8312 853.133 76.7697C853.788 80.9238 853.7 86.2047 850.794 89.6256C847.324 92.6745 842.556 89.8495 842.987 85.7655Z" fill="white"/>
<path d="M776.48 150.408C776.833 154.039 777.448 157.519 776.976 160.929C776.394 164.752 770.067 165.267 769.15 161.264C768.274 157.934 768.595 154.263 768.503 150.481C768.481 145.612 776.156 145.016 776.48 150.408Z" fill="white"/>
<path d="M805.114 206.043C806.362 208.809 807.61 211.575 807.923 214.532C808.346 217.077 808.177 221.01 805.26 221.997C802.866 222.681 801.618 219.916 801.235 218.045C800.771 214.826 801.243 211.416 800.367 208.087C800.356 205.653 803.604 203.429 805.114 206.043Z" fill="white"/>
<path d="M836.445 227.699C838.135 228.815 838.931 230.797 838.901 232.557C838.982 233.905 838.5 234.881 837.756 236.008C837.012 237.134 836.076 237.326 835.141 237.517C834.205 237.709 832.707 237.528 832.364 236.331C832.173 235.396 832.655 234.42 832.876 233.595C833.248 233.032 833.359 232.619 833.58 231.794C833.429 231.533 833.539 231.12 833.388 230.859C831.507 228.808 834.192 226.212 836.445 227.699Z" fill="white"/>
<path d="M800.882 146.777C804.082 150.508 807.212 155.325 806.449 160.647C805.937 163.383 801.934 164.299 800.424 161.684C798.462 158.285 797.958 154.393 795.995 150.993C793.922 148.007 798.135 143.831 800.882 146.777Z" fill="white"/>
<path d="M749.518 167.716C749.518 167.716 749.257 167.867 749.518 167.716C747.427 168.924 745.324 167.698 744.941 165.827C744.146 163.846 744.849 162.045 745.814 160.093C746.779 158.141 747.634 156.602 748.599 154.65C750.901 150.184 758.144 153.672 755.581 158.289C754.877 160.09 753.761 161.78 753.058 163.581C752.093 165.533 751.238 167.072 749.518 167.716Z" fill="white"/>
<path d="M844.055 246.317C846.147 245.109 848.471 245.511 850.794 245.912C853.38 246.163 856.116 246.675 858.48 247.751C860.693 248.565 860.785 252.347 858.955 253.404C856.863 254.611 853.644 255.075 850.757 254.302L844.147 250.099C843.845 249.576 843.654 248.641 843.613 247.967C843.311 247.444 843.532 246.619 844.055 246.317Z" fill="white"/>
<path d="M761.956 185.638C762.6 187.357 762.983 189.228 762.541 190.878C762.099 192.528 761.134 194.48 759.112 194.601C758.438 194.641 757.723 194.008 757.422 193.485C757.079 192.288 757.411 191.051 757.893 190.075C757.963 188.988 758.184 188.164 757.842 186.967C757.268 184.16 760.858 183.133 761.956 185.638Z" fill="white"/>
<path d="M821.576 218.853C819.664 218.562 818.195 216.621 818.074 214.599C817.952 212.578 819.481 210.998 821.05 210.092C825.535 208.2 830.555 208.439 835.272 208.156C839.577 207.763 841.068 214.572 836.542 215.79C831.493 217.311 827.007 219.203 821.576 218.853Z" fill="white"/>
<path d="M792.794 181.08C791.346 184.008 789.899 186.935 788.451 189.863C787.224 191.966 784.429 194.974 781.652 193.788C779.137 192.451 780.132 188.739 781.097 186.787C782.545 183.86 784.927 180.741 786.938 178.185C788.868 174.282 794.573 176.915 792.794 181.08Z" fill="white"/>
<path d="M873.441 226.56C870.233 229.458 865.556 230.415 861.402 231.07C858.183 231.534 851.856 232.049 851.05 227.633C850.133 223.63 855.484 222.633 858.18 222.471C862.485 222.077 867.575 221.231 871.81 221.923C873.872 222.476 874.708 225.131 873.441 226.56Z" fill="white"/>
<path d="M830.871 186.641C828.507 185.565 828.868 182.568 830.547 181.25C834.057 178.875 837.949 178.37 840.855 174.949C844.395 170.814 850.824 176.515 847.285 180.651C843.373 185.349 836.987 189.385 830.871 186.641Z" fill="white"/>
<path d="M812.301 188.295C810.239 187.743 809.333 186.174 808.95 184.303C808.336 180.823 809.853 176.809 810.737 173.51C811.842 169.385 817.687 169.846 818.08 174.151C818.323 178.195 818.566 182.238 817.159 185.84C816.455 187.64 814.212 188.587 812.301 188.295Z" fill="white"/>
<path d="M825.016 158.991C824.534 159.967 823.79 161.094 822.442 161.175C814.425 160.574 814.15 149.227 815.697 143.453C817.023 138.504 823.884 140.121 823.231 145.03C822.981 147.615 823.102 149.637 824.048 151.88C824.733 154.274 825.569 156.929 825.016 158.991Z" fill="white"/>
<path d="M862.135 193.692C862.316 192.193 863.17 190.654 863.763 189.266C864.356 187.878 864.537 186.379 864.456 185.031C864.696 180.011 871.174 179.758 872.282 184.696C872.937 188.851 872.848 194.131 869.942 197.552C866.473 200.601 861.704 197.776 862.135 193.692Z" fill="white"/>
</svg>
